# xmcd CD database file
#
# Track frame offsets:
#	150
#	13532
#	24627
#	38460
#	52562
#	63935
#	76675
#	88755
#	102492
#	114620
#	126332
#	142072
#
# Disc length: 2094 seconds
#
# Revision: 1
# Processed by: cddbd v1.5.1PL2 Copyright (c) Steve Scherf et al.
# Submitted via: CDex 1.70beta2
#
DISCID=91082c0c
DTITLE=Conway Twitty - Greatest (No.1) Hits
DYEAR=1982
DGENRE=Country
TTITLE0=After All The Good Is Gone
TTITLE1=As Soon As I Hang Up The Phone
TTITLE2=Baby's Gone
TTITLE3=Fifteen Years Ago
TTITLE4=Hello Darlin'
TTITLE5=This Time I've Hurt Her More Than She Loves Me
TTITLE6=Linda On My Mind
TTITLE7=Games That Daddies Play
TTITLE8=She Needs Someone To Hold Her
TTITLE9=To See An Angel Cry
TTITLE10=Touch The Hand
TTITLE11=You've Never Been This Far Before
EXTD=YEAR: 1982
EXTT0=
EXTT1=
EXTT2=
EXTT3=
EXTT4=
EXTT5=
EXTT6=
EXTT7=
EXTT8=
EXTT9=
EXTT10=
EXTT11=
PLAYORDER=
